<?xml version="1.0" standalone="no"?>
<!DOCTYPE svg PUBLIC "-//W3C//DTD SVG 20010904//EN"
 "http://www.w3.org/TR/2001/REC-SVG-20010904/DTD/svg10.dtd">
<svg version="1.0" xmlns="http://www.w3.org/2000/svg"
 width="640.000000pt" height="640.000000pt" viewBox="0 0 640.000000 640.000000"
 preserveAspectRatio="xMidYMid meet">
<metadata>
Created by potrace 1.14, written by Peter Selinger 2001-2017
</metadata>
<g transform="translate(0.000000,640.000000) scale(0.100000,-0.100000)"
fill="#000000" stroke="none">
<path d="M2998 6395 c-1 -1 -42 -6 -90 -9 -48 -3 -93 -8 -100 -10 -7 -3 -38
-7 -68 -11 -316 -34 -815 -202 -1089 -367 -34 -21 -65 -38 -67 -38 -16 0 -304
-197 -373 -255 -202 -168 -351 -317 -506 -506 -53 -65 -155 -208 -155 -218 0
-6 -4 -11 -9 -11 -5 0 -13 -9 -16 -20 -3 -11 -12 -26 -20 -33 -7 -7 -28 -40
-46 -73 -19 -32 -42 -72 -51 -89 -127 -222 -282 -630 -324 -855 -2 -14 -11
-59 -19 -100 -42 -220 -49 -314 -49 -605 0 -222 7 -369 20 -415 2 -8 6 -35 9
-60 3 -25 7 -56 10 -70 3 -14 7 -38 10 -55 3 -16 16 -77 30 -135 14 -58 27
-115 30 -126 41 -174 211 -576 308 -731 15 -24 27 -45 27 -48 0 -3 8 -18 19
-33 10 -15 40 -61 67 -102 27 -41 51 -77 54 -80 3 -3 32 -41 65 -85 123 -165
281 -331 485 -510 64 -56 195 -152 310 -228 433 -284 929 -456 1455 -504 163
-15 603 -7 688 12 12 3 40 7 62 10 22 2 54 7 70 10 105 19 197 39 243 51 186
50 182 48 342 107 166 61 468 207 521 253 8 8 19 14 23 14 10 0 180 115 271
184 203 153 419 367 578 571 26 33 51 65 56 71 15 18 135 198 147 219 6 11 33
58 60 105 143 246 281 600 335 859 26 126 58 326 65 406 16 178 9 654 -11 725
-3 8 -7 38 -9 65 -6 54 -64 344 -72 357 -3 5 -7 19 -10 32 -25 140 -208 576
-307 733 -15 24 -27 45 -27 48 0 3 -8 18 -19 33 -10 15 -40 61 -67 102 -27 41
-51 77 -54 80 -3 3 -17 21 -30 40 -92 135 -311 373 -470 510 -41 36 -77 67
-80 70 -3 3 -21 17 -42 32 -20 15 -42 33 -50 40 -8 7 -21 18 -30 23 -9 6 -53
36 -99 68 -45 32 -96 66 -112 75 -16 9 -37 22 -46 27 -196 121 -522 267 -706
316 -16 4 -82 21 -145 39 -63 17 -128 33 -145 35 -16 3 -41 7 -55 10 -35 6
-78 13 -125 20 -22 3 -58 8 -80 12 -22 3 -58 8 -80 10 -54 5 -502 12 -507 8z"/>
</g>
</svg>
